<?xml version="1.0" standalone="no"?>
<!DOCTYPE svg PUBLIC "-//W3C//DTD SVG 20010904//EN"
 "http://www.w3.org/TR/2001/REC-SVG-20010904/DTD/svg10.dtd">
<svg version="1.0" xmlns="http://www.w3.org/2000/svg"
 width="605.000000pt" height="605.000000pt" viewBox="0 0 605.000000 605.000000"
 preserveAspectRatio="xMidYMid meet">
<metadata>
Created by potrace 1.14, written by Peter Selinger 2001-2017
</metadata>
<g transform="translate(0.000000,605.000000) scale(0.100000,-0.100000)"
fill="#000000" stroke="none">
<path d="M2727 5904 c-1 -1 -28 -4 -59 -6 -51 -2 -57 -5 -54 -23 3 -18 10 -20
70 -18 37 2 65 -1 62 -5 -2 -4 -29 -45 -60 -92 -75 -113 -74 -120 12 -113 37
2 76 6 87 8 11 2 30 4 43 4 17 1 22 7 22 25 0 24 -2 25 -47 20 -27 -3 -58 -7
-70 -10 -13 -2 -23 -2 -23 2 0 3 25 41 55 85 30 43 57 90 61 104 6 26 6 26
-45 24 -28 -2 -52 -4 -54 -5z"/>
<path d="M2931 5798 c-30 -62 -56 -119 -58 -125 -4 -9 5 -13 25 -13 23 0 32 6
41 28 11 26 15 28 64 26 29 -1 55 -3 60 -3 4 -1 12 -12 17 -26 7 -19 17 -25
39 -25 34 0 39 -19 -37 155 -36 82 -42 90 -69 93 -28 3 -31 -1 -82 -110z m102
2 l15 -40 -39 0 -39 0 15 36 c8 20 15 38 15 40 0 2 4 4 8 4 5 0 16 -18 25 -40z"/>
<path d="M3314 5839 c7 -61 10 -84 21 -166 6 -44 2 -39 43 -48 19 -4 32 -3 32
3 0 14 80 149 81 137 0 -6 2 -17 4 -26 1 -8 6 -42 10 -75 7 -61 16 -74 50 -74
15 0 35 27 83 112 39 68 59 115 53 121 -21 21 -47 -1 -86 -71 -22 -39 -43 -72
-47 -72 -5 0 -8 17 -9 38 -1 39 -6 82 -14 120 -5 18 -11 23 -32 20 -26 -3 -45
-28 -89 -116 -17 -33 -26 -35 -31 -4 -3 21 -15 123 -16 140 0 6 -6 12 -13 12
-7 0 -20 3 -29 7 -16 5 -17 0 -11 -58z"/>
<path d="M2508 5873 c-21 -5 -21 -6 -9 -53 5 -19 12 -50 15 -68 l6 -34 -78 64
c-53 44 -84 63 -99 60 -25 -4 -25 -7 2 -137 22 -111 24 -115 44 -115 18 0 45
23 37 31 -3 2 -11 32 -19 66 l-14 62 66 -52 c36 -28 69 -55 72 -59 8 -12 44
-18 56 -10 7 5 2 46 -13 122 -13 63 -24 118 -24 123 0 7 -14 8 -42 0z"/>
<path d="M2175 5800 c-33 -10 -74 -24 -91 -31 l-31 -14 37 -115 c24 -76 42
-115 51 -115 8 1 51 13 96 29 75 25 82 29 73 47 -11 20 -26 19 -102 -7 -36
-12 -37 -12 -46 15 -10 27 -9 28 44 45 54 17 59 22 49 49 -5 12 -14 11 -58 -3
-55 -19 -63 -17 -69 15 -2 16 8 23 58 40 53 17 60 23 55 41 -6 21 -6 21 -66 4z"/>
<path d="M3721 5684 c-23 -64 -39 -119 -36 -124 2 -4 15 -10 28 -12 21 -4 25
1 36 39 15 49 27 52 90 27 l39 -15 -18 -48 -18 -47 28 -11 c26 -10 30 -9 36
11 3 11 22 65 41 119 19 54 33 100 31 102 -2 2 -15 6 -29 10 -23 6 -27 2 -38
-34 -6 -22 -15 -43 -20 -45 -15 -10 -101 25 -101 40 0 8 7 30 15 50 14 34 14
35 -11 44 -14 6 -27 10 -29 10 -1 0 -21 -52 -44 -116z"/>
<path d="M1968 5724 c-24 -13 -45 -53 -73 -143 -7 -24 -8 -24 -22 10 -8 19
-19 44 -24 56 -7 20 -11 22 -34 11 -17 -8 -24 -17 -20 -27 41 -111 91 -211
104 -211 33 0 41 14 29 52 -6 22 -7 41 -1 51 8 15 15 13 65 -13 49 -26 60 -28
82 -18 25 11 35 28 17 28 -4 0 -38 16 -74 36 l-65 37 24 70 c13 39 23 71 21
73 -1 1 -14 -4 -29 -12z"/>
<path d="M4075 5642 c-38 -13 -55 -28 -74 -65 -22 -43 -19 -89 8 -127 23 -33
92 -68 128 -64 15 1 33 2 39 3 23 2 73 61 79 93 11 60 -6 103 -54 137 -31 22
-95 34 -126 23z m78 -51 c20 -2 47 -44 47 -73 0 -96 -143 -106 -154 -12 -7 50
39 97 84 88 8 -1 18 -3 23 -3z"/>
<path d="M2829 5546 c-2 -2 -33 -6 -69 -10 -36 -3 -76 -8 -90 -11 -14 -3 -36
-7 -50 -9 -132 -20 -350 -95 -512 -176 -204 -103 -353 -212 -523 -384 -243
-245 -401 -515 -500 -851 -18 -60 -38 -144 -45 -185 -7 -41 -14 -83 -16 -92
-16 -89 -22 -324 -10 -433 21 -198 58 -352 126 -525 187 -477 641 -931 1136
-1136 84 -34 224 -78 284 -88 19 -3 44 -7 55 -10 67 -13 174 -24 256 -26 11 0
19 -12 23 -35 8 -42 46 -88 86 -105 30 -12 30 -14 30 -86 0 -43 4 -74 10 -74
6 0 10 31 10 73 l0 73 42 19 c53 25 80 62 80 109 0 30 4 36 22 36 68 2 313 51
416 84 150 48 257 96 390 175 407 245 714 626 864 1075 31 92 62 221 72 291 3
28 8 52 9 55 17 28 24 362 11 480 -61 560 -336 1043 -786 1379 -279 208 -628
345 -970 380 -81 8 -344 13 -351 7z"/>
<path d="M1555 5425 c-285 -142 -454 -291 -564 -497 -45 -82 -95 -211 -82
-206 5 2 29 21 53 43 61 57 157 131 266 205 112 76 183 146 265 260 72 101 96
130 151 190 47 51 70 80 64 80 -2 0 -71 -34 -153 -75z"/>
<path d="M4350 5473 c0 -5 21 -28 46 -53 41 -41 69 -76 199 -249 59 -80 129
-144 230 -213 106 -72 212 -154 274 -212 l44 -41 -7 33 c-9 50 -78 192 -131
271 -103 154 -295 305 -527 415 -120 58 -128 61 -128 49z"/>
<path d="M954 5148 c-193 -145 -297 -383 -297 -678 -1 -111 10 -341 16 -346 2
-3 20 19 38 47 107 167 195 259 344 359 134 90 217 174 311 315 41 61 74 114
74 118 0 3 -30 -16 -66 -44 -36 -27 -111 -76 -167 -108 -207 -121 -232 -138
-317 -223 l-88 -86 13 43 c14 44 32 153 40 240 14 152 39 236 100 331 19 30
33 54 31 54 -2 0 -16 -10 -32 -22z"/>
<path d="M5079 5132 c31 -44 77 -140 90 -187 16 -62 18 -78 36 -255 3 -30 14
-87 23 -126 l18 -71 -76 77 c-82 84 -139 124 -307 219 -61 35 -143 87 -182
117 -39 29 -71 50 -71 47 0 -4 33 -57 74 -118 96 -144 173 -220 325 -325 134
-91 203 -162 308 -317 31 -46 58 -82 59 -80 7 6 16 204 16 337 0 213 -39 365
-130 510 -37 58 -144 170 -183 190 l-22 12 22 -30z"/>
<path d="M565 4674 c-57 -86 -114 -215 -141 -322 -37 -142 -29 -272 26 -450
26 -82 141 -352 150 -352 4 0 11 12 14 26 22 88 130 261 226 364 66 71 139
168 167 222 48 93 151 318 146 318 -3 0 -30 -24 -61 -54 -32 -29 -91 -82 -132
-117 -94 -80 -132 -119 -186 -192 -61 -82 -144 -263 -144 -314 0 -9 -3 -14 -6
-11 -5 6 -6 14 -18 119 -4 31 -8 65 -10 75 -2 11 -7 44 -11 74 -4 30 -9 64
-11 75 -14 70 -18 126 -18 255 1 80 4 159 8 175 10 48 18 84 17 90 0 2 6 20
15 40 8 19 12 35 10 35 -2 0 -21 -25 -41 -56z"/>
<path d="M5444 4714 c9 -18 36 -125 44 -174 9 -58 9 -282 0 -340 -24 -151 -47
-322 -50 -362 -3 -44 -16 -67 -19 -33 -2 24 -3 27 -28 90 -73 181 -137 263
-335 434 -59 51 -122 107 -139 125 -17 17 -28 24 -24 16 15 -39 137 -293 156
-325 11 -20 21 -39 21 -42 0 -6 88 -114 137 -169 110 -123 165 -210 228 -359
l17 -40 30 65 c109 233 156 391 164 545 5 86 2 114 -20 200 -28 105 -117 297
-162 350 -15 17 -24 25 -20 19z"/>
<path d="M296 3983 c-26 -123 -31 -170 -30 -293 1 -171 22 -219 216 -488 49
-70 117 -171 149 -226 32 -55 60 -93 61 -85 1 16 2 20 12 79 5 25 10 56 13 69
10 57 69 222 107 300 69 141 96 227 110 346 9 75 16 136 21 180 l4 40 -30 -35
c-37 -43 -159 -215 -178 -250 -60 -112 -95 -203 -107 -279 -3 -20 -7 -45 -9
-56 -2 -11 -4 -49 -5 -85 l-1 -65 -20 65 c-68 222 -107 327 -163 439 -87 173
-110 244 -121 370 -3 24 -6 45 -8 48 -2 2 -12 -32 -21 -74z"/>
<path d="M5730 4035 c-9 -134 -51 -270 -128 -412 -53 -98 -97 -217 -166 -448
l-15 -50 -1 60 c-3 173 -54 329 -162 488 -55 81 -157 217 -164 217 -3 0 -3
-12 0 -27 3 -16 8 -50 10 -78 15 -146 19 -175 33 -230 8 -33 43 -123 78 -200
87 -195 110 -267 139 -449 7 -42 10 -41 37 11 27 53 127 205 243 368 132 186
162 275 152 445 -3 58 -9 123 -12 145 -10 62 -43 182 -44 160z"/>
<path d="M920 3389 c0 -34 -53 -201 -95 -299 -19 -44 -41 -111 -49 -148 -14
-69 -15 -252 0 -307 7 -27 6 -29 -9 -16 -10 7 -17 18 -17 23 0 11 -99 156
-135 197 -70 80 -191 219 -209 241 -36 42 -93 133 -136 216 l-41 79 5 -105 c6
-127 11 -154 42 -250 47 -139 116 -248 242 -376 87 -89 117 -114 277 -229 22
-16 67 -57 100 -91 l61 -61 -18 86 c-22 107 -18 248 11 383 26 126 33 176 35
275 3 94 -16 292 -29 314 -2 3 -7 21 -10 40 -8 43 -25 63 -25 28z"/>
<path d="M5116 3392 c-3 -5 -8 -22 -11 -38 -31 -152 -37 -204 -37 -334 -1
-122 4 -165 27 -270 36 -164 42 -314 16 -424 l-19 -79 56 60 c32 33 110 99
175 147 335 248 492 508 495 821 l1 90 -21 -45 c-51 -111 -140 -239 -254 -367
-37 -40 -76 -86 -88 -101 -11 -15 -29 -36 -39 -47 -10 -11 -50 -67 -89 -125
-39 -58 -67 -94 -63 -80 13 39 16 68 20 170 5 112 -10 184 -65 320 -40 101
-90 257 -93 290 -1 22 -3 24 -11 12z"/>
<path d="M1054 2672 c0 -75 -4 -191 -7 -257 -7 -130 3 -198 46 -304 l23 -56
-86 57 c-47 31 -146 88 -220 128 -74 39 -160 90 -190 112 -76 57 -163 149
-221 236 -27 39 -51 72 -53 72 -7 0 45 -162 76 -237 92 -223 246 -384 440
-460 35 -13 72 -28 83 -33 11 -5 67 -25 125 -45 58 -20 155 -60 217 -89 l111
-54 -29 66 c-30 67 -64 185 -73 257 -35 262 -50 333 -97 455 -25 66 -90 201
-121 252 l-23 37 -1 -137z"/>
<path d="M4960 2743 c-73 -136 -134 -287 -160 -398 -17 -73 -23 -107 -35 -205
-12 -98 -17 -130 -32 -190 -9 -36 -30 -100 -48 -142 l-32 -76 66 33 c93 48
148 70 296 122 216 75 303 121 402 210 59 53 137 162 182 252 50 100 122 319
100 306 -5 -4 -9 -10 -9 -15 0 -20 -99 -149 -162 -212 -79 -77 -164 -136 -298
-204 -52 -26 -139 -76 -194 -111 -64 -42 -96 -58 -91 -46 53 137 59 167 57
293 -6 378 -7 440 -9 440 -1 0 -16 -26 -33 -57z"/>
<path d="M1383 2148 c16 -62 40 -153 53 -203 27 -102 87 -229 145 -306 21 -29
39 -54 39 -55 0 -1 -19 8 -42 21 -62 34 -164 66 -253 80 -142 21 -177 27 -240
42 -128 30 -253 92 -360 177 -64 52 -68 51 -39 -5 121 -240 279 -366 564 -450
117 -34 192 -43 395 -44 110 -1 213 -5 228 -9 l29 -9 -35 69 c-19 38 -49 112
-67 164 -63 182 -152 335 -276 471 -65 72 -161 169 -168 169 -1 0 11 -51 27
-112z"/>
<path d="M4627 2188 c-200 -200 -288 -335 -378 -579 -23 -63 -50 -131 -61
-152 -35 -69 -39 -87 -22 -87 8 0 12 5 9 10 -8 12 11 13 250 15 105 1 208 5
230 9 183 34 380 115 487 200 78 62 161 165 208 259 42 83 41 84 -30 27 -124
-101 -286 -169 -467 -195 -193 -29 -291 -54 -375 -96 -21 -11 -40 -19 -42 -19
-3 0 12 24 35 53 73 95 141 254 163 382 3 17 18 76 34 133 16 56 28 102 26
102 -2 0 -32 -28 -67 -62z"/>
<path d="M2299 1346 c-2 -2 -31 -7 -64 -10 -76 -7 -303 -48 -415 -74 -121 -29
-143 -32 -253 -39 -109 -6 -242 8 -338 37 l-61 19 22 -24 c33 -35 149 -111
223 -145 123 -58 243 -82 422 -85 188 -3 299 13 530 76 186 51 248 66 305 73
76 10 200 18 200 13 0 -2 -28 -21 -62 -42 -34 -21 -105 -73 -157 -116 -101
-82 -272 -249 -256 -249 36 -2 92 -13 100 -21 20 -19 41 -7 65 39 78 151 247
291 418 347 49 16 55 16 105 0 169 -55 326 -184 409 -335 18 -33 39 -60 46
-60 7 0 11 4 8 8 -3 5 12 9 32 10 21 2 50 6 65 10 28 7 27 8 -70 104 -130 130
-194 180 -363 286 l-35 22 75 -5 c137 -10 215 -25 395 -73 159 -43 298 -72
384 -79 288 -25 546 21 712 129 35 22 66 43 69 47 3 3 21 19 40 35 19 16 28
27 19 24 -146 -54 -290 -69 -420 -44 -35 7 -93 18 -129 25 -71 13 -93 17 -160
31 -48 10 -80 17 -120 25 -231 47 -604 55 -785 17 -55 -12 -127 -30 -160 -41
-59 -20 -61 -20 -125 -1 -194 57 -237 63 -456 66 -116 2 -213 2 -215 0z"/>
<path d="M3329 603 c-1 -38 -1 -123 0 -150 1 -27 40 -28 42 -1 0 10 2 54 2 98
2 77 1 80 -20 80 -18 0 -23 -6 -24 -27z"/>
<path d="M3409 621 c0 -6 -1 -45 -1 -86 0 -107 0 -106 20 -103 26 4 27 9 27
105 0 84 -1 88 -22 91 -13 2 -23 -1 -24 -7z"/>
<path d="M1979 618 c-1 -2 -2 -42 -3 -90 -1 -70 1 -89 13 -93 16 -6 44 22 36
35 -3 4 2 13 9 19 11 10 18 6 32 -18 18 -30 45 -44 69 -35 10 4 4 18 -21 51
-19 24 -34 48 -34 52 0 4 14 20 30 36 36 34 38 45 8 45 -12 0 -40 -17 -61 -37
-35 -34 -39 -35 -34 -15 8 32 -1 52 -24 52 -10 0 -20 -1 -20 -2z"/>
<path d="M2874 604 c3 -8 16 -48 27 -89 17 -56 27 -75 43 -79 24 -6 44 14 52
54 12 53 17 54 32 3 11 -36 22 -53 36 -57 32 -8 41 7 80 137 15 47 15 47 -9
47 -20 0 -26 -9 -42 -57 l-19 -56 -18 56 c-15 48 -22 57 -41 57 -19 0 -26 -9
-41 -57 l-18 -56 -19 56 c-16 49 -22 57 -44 57 -19 0 -24 -4 -19 -16z"/>
<path d="M2172 560 c-46 -43 -19 -117 44 -125 33 -4 83 18 65 29 -6 4 -11 14
-11 22 0 8 4 13 9 10 14 -9 22 23 11 44 -23 43 -83 53 -118 20z m73 -30 c4 -6
-5 -10 -19 -10 -14 0 -26 5 -26 10 0 6 9 10 19 10 11 0 23 -4 26 -10z m15 -42
c0 -5 -4 -9 -10 -9 -33 -4 -44 -3 -47 6 -2 6 10 11 27 10 16 0 30 -3 30 -7z"/>
<path d="M2324 507 c1 -65 3 -72 21 -72 17 0 21 8 25 50 4 42 8 50 25 50 17 0
21 -8 25 -50 3 -32 10 -50 18 -49 6 1 16 2 21 3 4 0 9 24 10 51 1 69 -19 89
-92 89 l-55 0 2 -72z"/>
<path d="M2496 572 c-8 -13 8 -30 32 -33 l23 -4 -29 -35 c-43 -54 -37 -64 33
-65 53 0 60 2 60 20 0 14 -7 20 -22 21 -35 2 -39 4 -28 12 19 13 55 65 55 78
0 10 -16 14 -59 14 -33 0 -62 -4 -65 -8z"/>
<path d="M2657 573 c-11 -3 -16 -10 -13 -20 3 -8 6 -16 6 -19 0 -2 13 -1 29 2
16 4 32 1 35 -5 5 -7 -3 -11 -21 -11 -35 0 -53 -12 -57 -36 -6 -34 18 -49 76
-48 l53 0 3 56 c3 49 0 58 -20 72 -22 16 -54 19 -91 9z m55 -105 c-9 -9 -15
-9 -24 0 -10 10 -10 15 2 22 20 12 38 -6 22 -22z"/>
<path d="M3187 569 c-28 -16 -40 -58 -26 -91 11 -27 21 -33 71 -42 35 -6 68
17 51 35 -18 18 -16 32 2 25 23 -8 19 40 -5 64 -22 22 -64 26 -93 9z m68 -39
c4 -6 -7 -10 -25 -10 -18 0 -29 4 -25 10 3 6 15 10 25 10 10 0 22 -4 25 -10z
m5 -41 c0 -13 -17 -19 -34 -13 -24 9 -19 20 9 20 14 0 25 -3 25 -7z"/>
<path d="M3491 509 c0 -38 4 -70 9 -70 32 -5 35 -1 40 46 4 42 8 50 25 50 17
0 21 -8 25 -49 4 -42 8 -50 27 -51 21 -2 22 2 20 58 -4 72 -18 86 -92 86 l-53
0 -1 -70z"/>
<path d="M3700 573 c-25 -9 -40 -35 -40 -68 0 -52 54 -83 110 -63 33 11 30 40
-4 37 -37 -2 -56 1 -56 9 0 5 21 9 47 8 38 -1 47 2 49 18 6 41 -58 76 -106 59z
m55 -43 c4 -6 -5 -10 -19 -10 -14 0 -26 5 -26 10 0 6 9 10 19 10 11 0 23 -4
26 -10z"/>
<path d="M3840 562 c-32 -26 -20 -59 25 -68 19 -3 32 -10 30 -15 -3 -4 -19 -6
-34 -3 -31 7 -50 -11 -32 -29 14 -14 87 -12 106 3 33 28 6 70 -44 70 -12 0
-21 5 -21 11 0 6 14 9 33 7 26 -2 32 0 32 17 0 28 -63 33 -95 7z"/>
<path d="M3989 574 c-18 -5 -31 -38 -23 -59 3 -7 21 -16 40 -19 44 -9 44 -25
0 -19 -36 5 -56 -11 -38 -29 15 -15 88 -14 107 2 25 21 14 54 -22 65 -47 15
-53 27 -13 23 29 -2 35 0 35 17 0 16 -7 20 -35 22 -19 0 -42 -1 -51 -3z"/>
<path d="M3927 327 c-3 -8 -1 -19 5 -25 15 -15 49 -2 46 17 -4 20 -44 27 -51
8z"/>
<path d="M4423 324 c-3 -9 0 -20 8 -24 18 -12 50 7 43 25 -8 20 -43 19 -51 -1z"/>
<path d="M2026 318 c-3 -7 -4 -51 -3 -98 2 -78 4 -85 22 -85 18 0 20 8 23 98
3 92 2 97 -18 97 -11 0 -22 -6 -24 -12z"/>
<path d="M2232 235 c0 -76 2 -95 14 -95 8 0 17 0 22 0 4 0 9 21 12 47 4 40 8
48 25 48 17 0 21 -8 25 -48 3 -26 8 -47 13 -47 4 0 13 0 21 0 11 0 15 13 14
51 0 63 -24 93 -69 87 -26 -4 -29 -2 -29 24 0 23 -4 28 -24 28 -22 0 -23 -2
-24 -95z"/>
<path d="M1256 299 c-9 -14 -12 -29 -7 -42 5 -13 2 -27 -7 -38 -24 -28 -22
-47 5 -69 24 -19 68 -20 95 -4 5 3 14 1 21 -5 9 -7 16 -5 25 9 7 12 8 21 2 25
-7 4 -7 13 0 25 12 22 -15 37 -35 20 -20 -16 -30 7 -11 25 17 17 13 54 -6 67
-25 15 -67 8 -82 -13z m59 -29 c-3 -5 -10 -10 -16 -10 -5 0 -9 5 -9 10 0 6 7
10 16 10 8 0 12 -4 9 -10z m-1 -89 c-9 -9 -34 -9 -40 0 -11 18 6 29 26 17 11
-7 17 -14 14 -17z"/>
<path d="M1500 227 c0 -91 1 -94 23 -92 18 1 23 8 25 38 3 35 5 37 37 37 32 0
34 -2 37 -37 2 -30 7 -38 23 -38 18 0 20 7 22 93 3 92 3 92 -22 92 -22 0 -25
-4 -25 -35 0 -33 -2 -35 -35 -35 -33 0 -35 2 -35 35 0 31 -3 35 -25 35 -25 0
-25 0 -25 -93z"/>
<path d="M3099 291 c-38 -38 -39 -87 -4 -125 25 -27 28 -28 70 -28 48 0 54 2
79 29 20 21 24 34 20 67 -8 83 -105 116 -165 57z m105 -27 c45 -44 -19 -117
-66 -76 -34 29 -12 92 32 92 10 0 26 -7 34 -16z"/>
<path d="M2120 295 c0 -8 -4 -15 -10 -15 -13 0 -13 -37 1 -42 5 -2 12 -20 14
-41 4 -44 19 -66 43 -62 9 2 23 4 30 4 20 1 14 32 -8 38 -24 6 -29 63 -6 63 7
0 16 9 19 20 4 15 0 20 -14 20 -10 0 -19 7 -19 15 0 9 -9 15 -25 15 -16 0 -25
-6 -25 -15z"/>
<path d="M4310 295 c0 -8 -4 -15 -10 -15 -5 0 -10 -9 -10 -20 0 -11 6 -20 13
-20 9 0 12 -11 9 -34 -5 -39 24 -77 55 -71 10 2 22 4 26 4 15 2 2 36 -13 36
-10 0 -16 12 -18 33 -2 24 1 32 12 32 9 0 16 9 16 20 0 11 -7 20 -15 20 -8 0
-15 7 -15 15 0 9 -9 15 -25 15 -16 0 -25 -6 -25 -15z"/>
<path d="M1727 269 c-47 -28 -40 -109 11 -127 30 -10 72 -6 86 8 13 13 -13 43
-28 32 -15 -11 -39 -9 -43 4 -2 7 12 11 39 10 37 -1 43 2 46 21 7 47 -64 80
-111 52z m63 -39 c0 -5 -12 -10 -26 -10 -14 0 -23 4 -19 10 3 6 15 10 26 10
10 0 19 -4 19 -10z"/>
<path d="M1877 273 c-11 -3 -16 -10 -13 -20 3 -8 6 -16 6 -19 0 -2 13 -1 29 2
16 4 32 1 35 -5 5 -7 -3 -11 -21 -11 -36 0 -56 -13 -60 -38 -4 -30 22 -45 80
-46 l52 0 3 51 c4 77 -33 106 -111 86z m63 -87 c0 -18 -27 -29 -36 -14 -4 5 0
14 7 19 20 13 29 11 29 -5z"/>
<path d="M2424 255 c-35 -35 -25 -89 21 -112 41 -21 114 12 87 39 -10 10 -17
10 -33 0 -16 -10 -24 -10 -35 -1 -33 27 -2 75 35 52 20 -12 41 -6 41 12 0 39
-80 46 -116 10z"/>
<path d="M2577 273 c-11 -3 -16 -10 -13 -20 3 -8 6 -16 6 -19 0 -2 13 -1 29 2
16 4 32 1 35 -5 5 -7 -4 -11 -23 -11 -31 0 -61 -22 -61 -44 0 -23 28 -38 68
-39 74 0 72 -1 72 53 0 75 -37 103 -113 83z m59 -84 c10 -17 -13 -36 -27 -22
-12 12 -4 33 11 33 5 0 12 -5 16 -11z"/>
<path d="M2723 212 c0 -37 5 -70 10 -74 21 -13 37 5 37 41 0 40 8 56 29 63 8
2 15 11 17 20 1 13 -8 16 -45 16 l-48 1 0 -67z"/>
<path d="M2852 260 c-27 -26 -29 -80 -4 -103 23 -21 73 -27 101 -12 22 11 22
13 5 29 -9 10 -20 14 -23 9 -3 -5 -12 -8 -18 -7 -7 1 -17 2 -23 3 -25 3 -7 17
23 18 64 1 66 2 62 26 -10 53 -83 74 -123 37z m73 -30 c4 -6 -5 -10 -19 -10
-14 0 -26 5 -26 10 0 6 9 10 19 10 11 0 23 -4 26 -10z"/>
<path d="M3291 206 c0 -69 1 -73 22 -71 19 1 22 8 25 49 2 33 8 49 20 53 20 7
33 24 27 34 -3 3 -25 7 -49 7 l-45 1 0 -73z"/>
<path d="M3427 267 c-61 -49 -16 -138 61 -122 20 3 22 2 12 -10 -12 -14 -35
-16 -55 -3 -17 10 -39 -8 -32 -26 4 -9 13 -17 22 -17 8 -1 25 -2 38 -3 33 -3
66 14 73 38 4 12 8 51 8 88 l1 66 -56 1 c-31 0 -63 -5 -72 -12z m77 -43 c7
-19 -10 -44 -29 -44 -7 0 -18 7 -25 15 -10 12 -10 18 0 30 16 20 46 19 54 -1z"/>
<path d="M3599 273 c-11 -2 -15 -11 -12 -23 4 -15 11 -17 38 -13 19 3 35 1 39
-6 5 -7 -2 -11 -19 -11 -54 0 -79 -32 -56 -69 13 -20 121 -22 122 -1 6 57 -2
106 -18 117 -16 13 -60 15 -94 6z m60 -99 c-6 -8 -15 -14 -20 -14 -14 0 -11
28 4 33 20 7 29 -4 16 -19z"/>
<path d="M3748 262 c-2 -8 -1 -41 0 -73 3 -50 6 -57 23 -56 10 1 19 8 20 17 1
8 2 28 3 44 1 34 32 59 45 37 5 -8 8 -31 7 -53 -2 -21 0 -38 3 -39 3 0 14 -2
24 -4 15 -3 17 5 17 53 -1 78 -13 91 -83 90 -41 0 -57 -5 -59 -16z"/>
<path d="M3929 241 c-3 -104 -2 -110 19 -106 9 2 20 4 23 4 3 1 5 31 4 69 -1
61 -3 67 -23 70 -19 3 -22 -1 -23 -37z"/>
<path d="M4000 260 c0 -16 7 -20 31 -20 l30 0 -30 -37 c-47 -57 -42 -69 29
-68 65 1 76 6 67 29 -4 10 -15 13 -31 10 -33 -6 -33 3 3 45 41 47 32 61 -40
61 -52 0 -59 -2 -59 -20z"/>
<path d="M4158 273 c-14 -3 -16 -8 -8 -23 8 -15 17 -18 39 -14 16 4 32 1 35
-5 5 -7 -3 -11 -19 -11 -54 0 -79 -32 -56 -69 11 -16 120 -22 122 -6 6 60 0
107 -17 120 -18 14 -61 17 -96 8z m61 -99 c-6 -8 -15 -14 -20 -14 -14 0 -11
28 4 33 20 7 29 -4 16 -19z"/>
<path d="M4424 208 c1 -66 3 -73 21 -73 18 0 20 8 23 73 3 70 2 72 -21 72 -24
0 -24 -2 -23 -72z"/>
<path d="M4522 260 c-28 -26 -29 -80 -3 -104 11 -10 36 -18 56 -18 47 0 75 25
75 68 0 42 -33 74 -75 74 -18 0 -41 -9 -53 -20z m77 -34 c25 -30 -16 -67 -44
-40 -18 19 -19 26 -3 42 16 16 33 15 47 -2z"/>
<path d="M4679 269 c-4 -35 -3 -129 1 -130 3 0 13 -2 23 -4 17 -3 19 0 21 56
1 31 28 60 42 46 4 -4 9 -24 10 -45 1 -20 2 -42 3 -47 1 -6 10 -11 21 -11 20
0 22 8 22 66 0 65 -15 79 -87 79 -30 0 -55 -5 -56 -10z"/>
</g>
</svg>
